
        <svg xmlns="http://www.w3.org/2000/svg" xmlns:xlink="http://www.w3.org/1999/xlink" version="1.1" width="3250.6587826981167" 
        height="1265.8268526254901" viewBox="0 0 3250.6587826981167 1265.8268526254901">
			<rect fill="#f6f6f6" width="3250.6587826981167" height="1265.8268526254901"/>
			<g transform="scale(12.532939134905842) translate(10, 10)">
				<defs id="SvgjsDefs1150"></defs><g id="SvgjsG1151" featureKey="0LeO0L-0" transform="matrix(5.7881655710326,0,0,5.7881655710326,0.16957589634214532,-34.763719902490465)" fill="#34374c"><path d="M-0.029297 6.006 l2.6465 0 l0.78125 7.0313 l0.73242 0 c0.013018 -0.058594 0.22786 -2.4023 0.64453 -7.0313 l3.3496 0 c0.42969 4.7786 0.6543 7.2136 0.67383 7.3047 l1.1035 0 c0.48828 -4.1927 0.76172 -6.6276 0.82031 -7.3047 l2.6465 0 l-1.1035 7.4219 l-0.20508 0 l0 1.377 l-2.002 0 l0 0.35156 l1.582 0 l0 2.0898 l-1.5137 0 l0 1.8359 l-0.41016 0 l0 0.80078 l-1.6992 0 l0 -4.5215 l-1.1035 0 l0 -1.6309 c0 -0.14323 -0.14648 -1.4616 -0.43945 -3.9551 l-0.048828 0 l0 0.019531 l-0.36133 3.2422 l0.17578 0 l0 5.0098 l-1.6309 0 l0 1.9531 l-2.0898 0 l0 -1.9531 l-0.80078 0 l0 -4.6191 l-0.64453 0 z M1.1621 13.6328 l0.13672 0 l0.097656 0.30273 l0.019531 0 c0.045576 -0.20183 0.084639 -0.30273 0.11719 -0.30273 l0.087891 0 l0 0.029297 c-0.091143 0.31901 -0.14974 0.47852 -0.17578 0.47852 l-0.11719 0 c0 -0.045576 -0.055342 -0.21484 -0.16602 -0.50781 z M1.1426 14.3262 l0.13672 0.0000095367 l0 0.3418 c0 0.013018 0.032549 0.035801 0.097656 0.06835 c0.058594 -0.019531 0.087891 -0.042314 0.087891 -0.068359 l0 -0.3418 l0.13672 0 l0 0.25391 c0 0.13021 -0.045576 0.21484 -0.13672 0.25391 l-0.13672 0 c-0.1237 0 -0.18555 -0.084639 -0.18555 -0.25391 l0 -0.25391 z M1.1426 15.0098 l0.3418 0 c0.026045 0 0.058594 0.032549 0.097656 0.097656 l0 0.087891 l-0.048828 0.068359 c0.026045 0.05208 0.048828 0.13672 0.068359 0.25391 l-0.13672 0 c0 -0.039063 -0.0065136 -0.10091 -0.019531 -0.18555 l-0.16602 0 l0 0.18555 l-0.087891 0 c-0.032549 0 -0.048828 -0.016279 -0.048828 -0.048828 l0 -0.45898 z M1.2793 15.1074 l0 0.11718 l0.13672 0 c0.032549 0 0.048828 -0.016279 0.048828 -0.048828 c-0.013018 -0.032549 -0.019531 -0.055332 -0.019531 -0.06835 l-0.16602 0 z M1.2305 15.7031 l0.37109 -0.0000095367 l0 0.11719 l-0.22461 0 l0 0.068359 l0.15625 0 c0.032549 0.0065136 0.048828 0.022793 0.048828 0.048838 l0 0.068359 l-0.20508 0 l0 0.20508 l-0.097656 0 c-0.032549 0 -0.048828 -0.016279 -0.048828 -0.048828 l0 -0.45898 z M1.377 16.3672 c0.13672 0.032549 0.20506 0.094404 0.20506 0.18555 l-0.048828 0.019531 l-0.048828 0 l-0.087891 -0.087891 l-0.068359 0 c-0.065107 0.026045 -0.097656 0.078125 -0.097656 0.15625 c0 0.11067 0.048828 0.16602 0.14648 0.16602 c0.058594 -0.026045 0.087891 -0.048828 0.087891 -0.068359 l0 -0.019531 c-0.078125 0 -0.11719 -0.016279 -0.11719 -0.048828 l0 -0.029297 c0.0065136 -0.026045 0.022793 -0.039063 0.048838 -0.039063 l0.18555 0 l0 0.29297 l-0.029297 0 c-0.013018 0 -0.035801 -0.0065136 -0.06835 -0.019531 l-0.13672 0.019531 l-0.019531 0 c-0.13672 -0.019531 -0.20508 -0.087891 -0.20508 -0.20508 l0 -0.087891 c0 -0.13021 0.084639 -0.20833 0.25391 -0.23438 z M1.1426 17.0801 l0.13672 0 l0 0.18555 l0.18555 0 l0 -0.18555 l0.13672 0 l0 0.45898 c0 0.032549 -0.016279 0.048828 -0.048828 0.048828 l-0.087891 0 l0 -0.20508 l-0.18555 0 l0 0.20508 l-0.087891 0 c-0.032549 0 -0.048828 -0.016279 -0.048828 -0.048828 l0 -0.45898 z M10.195 17.3535 l0.13672 0 c0.032549 0.13672 0.048828 0.23112 0.048828 0.2832 l0.019531 0 c0.045576 -0.14974 0.068359 -0.24414 0.068359 -0.2832 l0.097656 0 c0.039063 0 0.068359 0.10091 0.087891 0.30273 l0.029297 0 c0.026045 -0.20183 0.055342 -0.30273 0.087891 -0.30273 l0.087891 0 c-0.071611 0.33854 -0.12369 0.50781 -0.15624 0.50781 l-0.097656 0 l-0.068359 -0.27344 l-0.019531 0 c-0.032549 0.16927 -0.048828 0.26041 -0.048828 0.27343 l-0.13672 0 c-0.026045 -0.13021 -0.071621 -0.29947 -0.13673 -0.5078 z M10.215 18.0469 l0.1172 0 c0.032549 0 0.065098 0.045576 0.097646 0.13672 c0.026045 0 0.055342 -0.045576 0.087891 -0.13672 l0.13672 0 l0 0.019531 l-0.13672 0.21484 c0 0.0065136 0.055342 0.087891 0.16602 0.24414 l0 0.029297 l-0.11719 0 c-0.039063 0 -0.078125 -0.055342 -0.11719 -0.16602 c-0.078125 0.11067 -0.1237 0.16602 -0.13672 0.16602 l-0.11719 0 c0 -0.013018 0.055342 -0.097656 0.16602 -0.25391 l0 -0.019531 l-0.14648 -0.21484 l0 -0.019531 z"></path></g><g id="SvgjsG1152" featureKey="pulpyG-0" transform="matrix(2.558522189891713,0,0,2.558522189891713,102.48829605002103,7.928127955595578)" fill="#34374c"><path d="M9.46 5.5 l2.96 0 l-2.28 14.5 l-2.64 0 l-1.2 -7.56 l-1.18 7.56 l-2.64 0 l-2.28 -14.5 l2.96 0 l0.92 8.44 l1.18 -8.44 l2.1 0 l1.16 8.44 z M13.22 5.5 l2.9 0 l0 14.5 l-2.9 0 l0 -14.5 z M17.32 5.5 l2.98 0 l0 11.8 l2.92 0 l-0.5 2.7 l-5.4 0 l0 -14.5 z M24.12 5.5 l2.98 0 l0 11.8 l2.92 0 l-0.5 2.7 l-5.4 0 l0 -14.5 z M33.42 5.5 l2.98 0 l0 11.8 l2.92 0 l-0.5 2.7 l-5.4 0 l0 -14.5 z M40.22 5.5 l5.64 0 l0.5 2.7 l-3.16 0 l0 3.44 l2.4 0 l0 2.5 l-2.4 0 l0 3.16 l3.04 0 l-0.5 2.7 l-5.52 0 l0 -14.5 z M47.36 5.5 l5.64 0 l0.5 2.7 l-3.16 0 l0 3.44 l2.4 0 l0 2.5 l-2.4 0 l0 3.16 l3.04 0 l-0.5 2.7 l-5.52 0 l0 -14.5 z"></path></g>
			</g>
		</svg>
	